<!--?xml version="1.0" encoding="UTF-8"?-->
<svg id="_レイヤー_2" data-name="レイヤー 2" xmlns="http://www.w3.org/2000/svg" viewBox="0 0 723.65 553.94" style="">
  <defs>
    <style>
      .cls-1 {
        fill: none;
        stroke: #81808e;
        stroke-miterlimit: 10;
      }
    </style>
  </defs>
  <g id="_レイヤー_1-2" data-name="レイヤー 1">
    <path id="_loading_sen_" data-name="&amp;lt;loading_sen&amp;gt;" class="cls-1 hKUxhYvy_0" d="M667.51,553.64c-3.55-4.61-61.92-47.45-69.59-52.65-15.56-10.55-38.54-19.62-52.54-19.29-9.7.23-30.6-14.35-35.13-19.22-5.47-5.89-11.98-6.82-19.7-10.38-7.71-3.56-21.56-20.77-26.9-27.1s-24.68-38.77-28.24-40.94c-3.56-2.18-8.21,1.85-6.77,7.12.73,2.67,2.39,7.92,5.54,6.73s1.19-3.16-1.58-6.33c-2.77-3.16-6.13-3.36-4.75,1.78,1.38,5.14,7.32,9.89,15.03,20.37,7.71,10.48,22.18,27.55,29.3,31.51s14.82,10.75,18.98,9.96c-3.16-2.37-19.79-19.51-25.92-24.46-6.13-4.95-15.03-20.57-18-28.48-2.97-7.91-12.84-30.79-10.22-30.89,6.05-.23,10.22,8.54,11.01,12.5.79,3.96-4.75,3.96-7.32,2.57s-7.32-14.64-4.15-16.62,8.22-5.79,17.09,1.25c9.72,7.72,11.19,20.31,17.32,28.82,6.13,8.51,11.84,27.53,15.82,31.45s11.87,8.11,17.8,13.65c5.93,5.54,20.37,15.82,23.34,18.79-.99.79-36-24.53-40.15-28.29-6.23-5.63-12.26-30.07-16.22-40.95s-6.33-25.91-2.18-25.12c4.15.79,9.35,12.53,8.75,14.9-.59,2.37-2.42,3.33-5.39,2.54s-7.65-13.79-6.33-16.45c1.7-3.41,7.13-5.82,12.77-3.41,4.43,1.89,7.65,5.77,8.39,6.97,3.45,5.61,5.14,12.46,9.89,25.71,4.75,13.25,8.9,17.21,17.6,23.93s18,7.32,31.85,10.48c13.85,3.16,25.5,8.13,31.65,11.67,6.15,3.54,15.23,11.27,12.07,12.07-3.16.79-20.77-20.37-31.65-26.11-10.88-5.74-19.38-18.79-18.99-24.92.4-6.13,11.66-10.5,16.99-8.5s7.53,5.34,9.12,9.3c1.58,3.96-12.74,12.4-15.31,11.21-2.57-1.19-12.6-7.85-11.21-14.97,1.38-7.12,7.87-10.46,15.59-9.07,7.71,1.38,42.98,26.87,55.84,29.44,12.86,2.57,26.9,6.73,42.33,13.45,15.43,6.73,26.1,35.01,29.87,46.09,3.7,10.86,17.74,24.76,36.18,45.42l-.37-.41c1.19,1.07,1.49,1.67,1.49,1.67,10.29-50.64-10.81-157.71-40.88-200.92-41.08-59.03-139.69-99.3-171.96-108.18-42.2-11.6-103.38-16.68-130.35-16.68-36.4,0-71.11,25.21-70.07,63.14,1.04,37.93,29.52,61.23,59.06,61.71s63.33-22.05,64.37-55.09c1.04-33.04-19.14-62.63-48.21-65.02-19.29-1.58-28.08,2.01-30.46,2.57-16.36,3.87-46.73,33.71-70.62,41.93-73.58,25.32-197.27-14.64-237.89-70.55C7.71,134.08-10.56,76.28,7.64,30.39c18.99,21.36,29.85,29.08,33.63,40.15,3.77,11.08,14.44,39.36,29.87,46.09,15.43,6.73,29.47,10.88,42.33,13.45,12.86,2.57,42.92,27.1,50.64,28.48,7.71,1.38,14.84,1.78,16.22-5.34,1.38-7.12-1.38-16.81-3.96-18s-19.58,7.52-18,11.47c1.58,3.96,2.38,8.69,7.71,10.68,5.34,1.99,18-3.76,18.4-9.89.4-6.13-8.11-19.19-18.99-24.92-10.88-5.74-28.48-26.9-31.65-26.11s5.92,8.53,12.07,12.07c6.15,3.54,17.8,8.51,31.65,11.67,13.85,3.16,23.14,3.76,31.85,10.48,8.7,6.73,12.86,10.68,17.6,23.93,4.75,13.25,6.33,20.18,9.89,25.71s5.34,6.92,11.47,6.92,9.69-.4,9.69-3.36-1.58-12.07-4.55-12.86c-2.97-.79-5.14-.2-5.74,2.18s3.16,10.88,7.32,11.67,1.78-14.24-2.18-25.12c-3.96-10.88-9.99-35.31-16.22-40.95-4.15-3.76-39.16-29.08-40.15-28.29,2.97,2.97,17.41,13.25,23.34,18.79s13.81,9.73,17.8,13.65,9.69,22.95,15.82,31.45c6.13,8.51,5.54,20.37,18.4,26.7,12.86,6.33,12.86,5.34,16.02,3.36,3.16-1.98-1.58-15.23-4.15-16.62-2.57-1.38-8.11-1.38-7.32,2.57s7.66,13.05,10.09,12.07-6.33-22.55-9.3-30.46c-2.97-7.91-11.87-23.54-18-28.48s-17.8-16.81-20.97-19.19c4.15-.79,8.7-1.58,15.82,2.37,7.12,3.96,19.78,23.34,27.49,33.82,7.71,10.48,13.65,15.23,15.03,20.37,1.38,5.14-1.98,4.95-4.75,1.78-2.77-3.16-4.74-5.14-1.58-6.33,3.15-1.19,5.54,3.96,5.54,6.73s-1.78,9.1-5.34,6.92c-3.56-2.18-24.33-34.42-29.67-40.75-5.34-6.33-19.19-23.54-26.9-27.1-7.71-3.56-17.01-5.14-20.97-10.48-3.96-5.34-13.05-15.03-22.75-15.43-9.69-.4-55.98-9.1-63.1-15.03-7.12-5.93-33.82-9.89-38.97-22.15C83,26.82,63.42,5.66,62.03.12"></path>
    <path id="_loading_sen_-2" data-name="&amp;lt;loading_sen&amp;gt;" class="cls-1 hKUxhYvy_1" d="M62.03.12c1.38,5.54,20.97,26.7,26.11,38.97,5.14,12.26,31.85,16.22,38.97,22.15,7.12,5.93,53.41,14.64,63.1,15.03,9.69.4,18.79,10.09,22.75,15.43,3.96,5.34,13.25,6.92,20.97,10.48,7.71,3.56,21.56,20.77,26.9,27.1,5.34,6.33,26.11,38.57,29.67,40.75,3.56,2.18,5.34-4.15,5.34-6.92s-2.39-7.92-5.54-6.73c-3.15,1.19-1.19,3.16,1.58,6.33,2.77,3.16,6.13,3.36,4.75-1.78-1.38-5.14-7.32-9.89-15.03-20.37-7.71-10.48-20.37-29.87-27.49-33.82-7.12-3.96-11.67-3.16-15.82-2.37,3.16,2.37,14.84,14.24,20.97,19.19s15.03,20.57,18,28.48c2.97,7.91,11.73,29.47,9.3,30.46s-9.3-8.11-10.09-12.07,4.75-3.96,7.32-2.57c2.57,1.38,7.32,14.64,4.15,16.62-3.16,1.98-3.16,2.97-16.02-3.36-12.86-6.33-12.26-18.2-18.4-26.7-6.13-8.51-11.84-27.53-15.82-31.45s-11.87-8.11-17.8-13.65-20.37-15.82-23.34-18.79c.99-.79,36,24.53,40.15,28.29,6.23,5.63,12.26,30.07,16.22,40.95,3.96,10.88,6.33,25.91,2.18,25.12s-7.91-9.3-7.32-11.67,2.77-2.97,5.74-2.18c2.97.79,4.55,9.89,4.55,12.86s-3.56,3.36-9.69,3.36-7.91-1.38-11.47-6.92-5.14-12.46-9.89-25.71c-4.75-13.25-8.9-17.21-17.6-23.93-8.7-6.73-18-7.32-31.85-10.48-13.85-3.16-25.5-8.13-31.65-11.67-6.15-3.54-15.23-11.27-12.07-12.07s20.77,20.37,31.65,26.11c10.88,5.74,19.38,18.79,18.99,24.92-.4,6.13-13.06,11.88-18.4,9.89-5.34-1.99-6.13-6.73-7.71-10.68-1.58-3.96,15.43-12.66,18-11.47s5.34,10.88,3.96,18c-1.38,7.12-8.51,6.73-16.22,5.34-7.71-1.38-37.78-25.91-50.64-28.48-12.86-2.57-26.9-6.73-42.33-13.45-15.43-6.73-26.1-35.01-29.87-46.09-3.77-11.08-14.64-18.79-33.63-40.15-18.2,45.89.08,103.7,35.87,152.97,40.62,55.91,164.31,95.87,237.89,70.55,23.89-8.22,54.26-38.06,70.62-41.93,2.38-.56,11.17-4.15,30.46-2.57,29.07,2.38,49.25,31.98,48.21,65.02-1.04,33.04-34.83,55.57-64.37,55.09s-58.02-23.78-59.06-61.71c-1.04-37.93,33.67-63.14,70.07-63.14,26.97,0,88.15,5.08,130.35,16.68,32.27,8.87,130.88,49.15,171.96,108.18,30.07,43.21,51.17,150.28,40.88,200.92,0,0-.3-.59-1.49-1.67l.37.41c-18.44-20.67-32.48-34.57-36.18-45.42-3.77-11.08-14.44-39.36-29.87-46.09-15.43-6.73-29.47-10.88-42.33-13.45-12.86-2.57-48.12-28.06-55.84-29.44-7.71-1.38-14.2,1.95-15.59,9.07-1.38,7.12,8.64,13.78,11.21,14.97s16.89-7.26,15.31-11.21c-1.58-3.96-3.78-7.3-9.12-9.3s-16.6,2.37-16.99,8.5c-.4,6.13,8.11,19.19,18.99,24.92,10.88,5.74,28.48,26.9,31.65,26.11,3.16-.79-5.92-8.53-12.07-12.07-6.15-3.54-17.8-8.51-31.65-11.67s-23.14-3.76-31.85-10.48-12.86-10.68-17.6-23.93c-4.75-13.25-6.44-20.1-9.89-25.71-.74-1.21-3.96-5.09-8.39-6.97-5.64-2.4-11.08,0-12.77,3.41-1.32,2.66,3.36,15.66,6.33,16.45s4.8-.16,5.39-2.54c.59-2.37-4.6-14.11-8.75-14.9-4.15-.79-1.78,14.24,2.18,25.12s9.99,35.31,16.22,40.95c4.15,3.76,39.16,29.08,40.15,28.29-2.97-2.97-17.41-13.25-23.34-18.79-5.93-5.54-13.81-9.73-17.8-13.65s-9.69-22.95-15.82-31.45c-6.13-8.51-7.6-21.1-17.32-28.82-8.87-7.04-13.93-3.23-17.09-1.25s1.58,15.23,4.15,16.62,8.11,1.38,7.32-2.57c-.79-3.96-4.96-12.72-11.01-12.5-2.62.1,7.25,22.98,10.22,30.89,2.97,7.91,11.87,23.54,18,28.48,6.13,4.95,22.76,22.08,25.92,24.46-4.15.79-11.86-6-18.98-9.96-7.12-3.96-21.58-21.03-29.3-31.51-7.71-10.48-13.65-15.23-15.03-20.37-1.38-5.14,1.98-4.95,4.75-1.78,2.77,3.16,4.74,5.14,1.58,6.33-3.15,1.19-4.81-4.05-5.54-6.73-1.43-5.27,3.21-9.3,6.77-7.12,3.56,2.18,22.9,34.61,28.24,40.94,5.34,6.33,19.19,23.54,26.9,27.1s14.22,4.48,19.7,10.38c4.52,4.87,25.43,19.45,35.13,19.22,13.99-.33,36.97,8.74,52.54,19.29,7.67,5.2,66.04,48.04,69.59,52.65"></path>
  </g>
<style data-made-with="vivus-instant">.hKUxhYvy_0{stroke-dasharray:4316 4318;stroke-dashoffset:4317;animation:hKUxhYvy_draw 10000ms linear 0ms forwards;}.hKUxhYvy_1{stroke-dasharray:4316 4318;stroke-dashoffset:4317;animation:hKUxhYvy_draw 10000ms linear 0ms forwards;}@keyframes hKUxhYvy_draw{100%{stroke-dashoffset:0;}}@keyframes hKUxhYvy_fade{0%{stroke-opacity:1;}97.1830985915493%{stroke-opacity:1;}100%{stroke-opacity:0;}}</style></svg>